<svg xmlns="http://www.w3.org/2000/svg" xmlns:xlink="http://www.w3.org/1999/xlink" width="1800" zoomAndPan="magnify" viewBox="0 0 1350 262.499992" height="350" preserveAspectRatio="xMidYMid meet" version="1.0"><defs><g/><clipPath id="aa4f0141f1"><path d="M 293 11 L 1348.714844 11 L 1348.714844 218 L 293 218 Z M 293 11 " clip-rule="nonzero"/></clipPath><clipPath id="1c5e210bc9"><path d="M 0.046875 60 L 121 60 L 121 181 L 0.046875 181 Z M 0.046875 60 " clip-rule="nonzero"/></clipPath><clipPath id="762049d908"><rect x="0" width="1056" y="0" height="207"/></clipPath><clipPath id="e58f575ac0"><path d="M 0.582031 23 L 217 23 L 217 240 L 0.582031 240 Z M 0.582031 23 " clip-rule="nonzero"/></clipPath><clipPath id="13b7547dcf"><rect x="0" width="261" y="0" height="262"/></clipPath></defs><g clip-path="url(#aa4f0141f1)"><g transform="matrix(1, 0, 0, 1, 293, 11)"><g clip-path="url(#762049d908)"><g clip-path="url(#1c5e210bc9)"><g fill="#000000" fill-opacity="1"><g transform="translate(0.087003, 180.594803)"><g><path d="M 119.953125 -95.96875 L 0 -95.96875 L 0 -119.953125 L 119.953125 -119.953125 Z M 119.953125 -47.984375 L 0 -47.984375 L 0 -71.96875 L 119.953125 -71.96875 Z M 119.953125 0 L 0 0 L 0 -23.984375 L 119.953125 -23.984375 Z M 119.953125 0 "/></g></g></g></g><g fill="#000000" fill-opacity="1"><g transform="translate(144.02007, 180.594803)"><g><path d="M 95.96875 -71.96875 L 95.96875 -95.96875 L 23.984375 -95.96875 L 23.984375 -71.96875 Z M 0 0 L 0 -119.953125 L 95.96875 -119.953125 C 102.582031 -119.953125 108.203125 -117.578125 112.828125 -112.828125 C 117.578125 -108.078125 119.953125 -102.457031 119.953125 -95.96875 L 119.953125 -71.96875 C 119.953125 -65.21875 117.578125 -59.535156 112.828125 -54.921875 C 108.078125 -50.296875 102.457031 -47.984375 95.96875 -47.984375 L 23.984375 -47.984375 L 23.984375 0 Z M 0 0 "/></g></g></g><g fill="#000000" fill-opacity="1"><g transform="translate(287.953137, 180.594803)"><g><path d="M 0 0 L 0 -119.953125 L 23.984375 -119.953125 L 23.984375 0 Z M 0 0 "/></g></g></g><g fill="#000000" fill-opacity="1"><g transform="translate(335.930825, 180.594803)"><g><path d="M 61.28125 0 C 54.539062 0 49.734375 -2.03125 46.859375 -6.09375 C 43.984375 -10.15625 40.796875 -16.117188 37.296875 -23.984375 L 0 -119.953125 L 23.984375 -119.953125 L 61.28125 -23.984375 L 95.96875 -119.953125 L 119.953125 -119.953125 L 85.28125 -23.984375 C 81.90625 -15.367188 78.6875 -9.21875 75.625 -5.53125 C 72.5625 -1.84375 67.78125 0 61.28125 0 Z M 61.28125 0 "/></g></g></g><g fill="#000000" fill-opacity="1"><g transform="translate(479.863892, 180.594803)"><g><path d="M 119.953125 -95.96875 L 0 -95.96875 L 0 -119.953125 L 119.953125 -119.953125 Z M 119.953125 -47.984375 L 0 -47.984375 L 0 -71.96875 L 119.953125 -71.96875 Z M 119.953125 0 L 0 0 L 0 -23.984375 L 119.953125 -23.984375 Z M 119.953125 0 "/></g></g></g><g fill="#000000" fill-opacity="1"><g transform="translate(623.796959, 180.594803)"><g><path d="M 95.96875 -71.96875 L 95.96875 -95.96875 L 23.984375 -95.96875 L 23.984375 -71.96875 Z M 71.96875 -47.984375 L 23.984375 -47.984375 L 23.984375 0 L 0 0 L 0 -119.953125 L 95.96875 -119.953125 C 102.582031 -119.953125 108.203125 -117.578125 112.828125 -112.828125 C 117.578125 -108.078125 119.953125 -102.457031 119.953125 -95.96875 L 119.953125 -71.96875 C 119.953125 -65.21875 117.578125 -59.535156 112.828125 -54.921875 C 108.078125 -50.296875 102.457031 -47.984375 95.96875 -47.984375 L 95.96875 -23.984375 L 119.953125 -23.984375 L 119.953125 0 L 95.96875 0 C 89.21875 0 83.59375 -2.3125 79.09375 -6.9375 C 74.34375 -11.6875 71.96875 -17.367188 71.96875 -23.984375 Z M 71.96875 -47.984375 "/></g></g></g><g fill="#000000" fill-opacity="1"><g transform="translate(767.730026, 180.594803)"><g><path d="M 0 0 L 0 -23.984375 L 95.96875 -23.984375 L 95.96875 -47.984375 L 23.984375 -47.984375 C 17.242188 -47.984375 11.625 -50.296875 7.125 -54.921875 C 2.375 -59.660156 0 -65.34375 0 -71.96875 L 0 -95.96875 C 0 -102.582031 2.3125 -108.203125 6.9375 -112.828125 C 11.6875 -117.578125 17.367188 -119.953125 23.984375 -119.953125 L 119.953125 -119.953125 L 119.953125 -95.96875 L 23.984375 -95.96875 L 23.984375 -71.96875 L 95.96875 -71.96875 C 102.582031 -71.96875 108.203125 -69.59375 112.828125 -64.84375 C 117.578125 -60.09375 119.953125 -54.472656 119.953125 -47.984375 L 119.953125 -23.984375 C 119.953125 -17.242188 117.578125 -11.5625 112.828125 -6.9375 C 108.078125 -2.3125 102.457031 0 95.96875 0 Z M 0 0 "/></g></g></g><g fill="#000000" fill-opacity="1"><g transform="translate(911.663092, 180.594803)"><g><path d="M 95.96875 -23.984375 L 95.96875 -95.96875 L 23.984375 -95.96875 L 23.984375 -23.984375 Z M 23.984375 0 C 17.242188 0 11.625 -2.3125 7.125 -6.9375 C 2.375 -11.6875 0 -17.367188 0 -23.984375 L 0 -95.96875 C 0 -102.582031 2.3125 -108.203125 6.9375 -112.828125 C 11.6875 -117.578125 17.367188 -119.953125 23.984375 -119.953125 L 95.96875 -119.953125 C 102.582031 -119.953125 108.203125 -117.578125 112.828125 -112.828125 C 117.578125 -108.078125 119.953125 -102.457031 119.953125 -95.96875 L 119.953125 -23.984375 C 119.953125 -17.242188 117.578125 -11.5625 112.828125 -6.9375 C 108.078125 -2.3125 102.457031 0 95.96875 0 Z M 23.984375 0 "/></g></g></g></g></g></g><g transform="matrix(1, 0, 0, 1, 11, 0)"><g clip-path="url(#13b7547dcf)"><g clip-path="url(#e58f575ac0)"><g fill="#000000" fill-opacity="1"><g transform="translate(0.75557, 239.862235)"><g><path d="M 216.1875 -172.953125 L 0 -172.953125 L 0 -216.1875 L 216.1875 -216.1875 Z M 216.1875 -86.46875 L 0 -86.46875 L 0 -129.703125 L 216.1875 -129.703125 Z M 216.1875 0 L 0 0 L 0 -43.234375 L 216.1875 -43.234375 Z M 216.1875 0 "/></g></g></g></g></g></g></svg>